<svg width="30" height="30" viewBox="0 0 30 30" fill="none" xmlns="http://www.w3.org/2000/svg">
<path d="M17.27 24.9212C16.9552 24.9196 16.6463 24.836 16.3737 24.6787L11.7875 22.0287C11.1695 21.6733 10.4691 21.4863 9.75621 21.4862H5.54871C4.76164 21.4846 4.00729 21.1711 3.45087 20.6144C2.89444 20.0578 2.58128 19.3033 2.57996 18.5162V11.4837C2.58161 10.6969 2.89492 9.94272 3.45131 9.38633C4.0077 8.82994 4.76185 8.51663 5.54871 8.51498H9.75621C10.4693 8.51417 11.1697 8.32625 11.7875 7.96998L16.375 5.32373C16.6477 5.16641 16.957 5.08355 17.2718 5.08344C17.5867 5.08332 17.896 5.16597 18.1689 5.32309C18.4417 5.48021 18.6684 5.70629 18.8264 5.97866C18.9843 6.25103 19.0679 6.56013 19.0687 6.87498V23.125C19.0711 23.4408 18.9891 23.7515 18.8314 24.025C18.6736 24.2986 18.4457 24.5251 18.1712 24.6812C17.8969 24.8385 17.5862 24.9212 17.27 24.9212ZM5.54871 9.76498C5.09307 9.76564 4.65628 9.94694 4.3341 10.2691C4.01191 10.5913 3.83062 11.0281 3.82996 11.4837V18.5162C3.83127 18.9718 4.01274 19.4083 4.33475 19.7306C4.65675 20.0528 5.09316 20.2346 5.54871 20.2362H9.75621C10.6887 20.2361 11.6048 20.4814 12.4125 20.9475L17 23.595C17.0834 23.6423 17.1777 23.6669 17.2736 23.6665C17.3695 23.6661 17.4636 23.6406 17.5466 23.5926C17.6296 23.5446 17.6986 23.4757 17.7468 23.3928C17.7949 23.3099 17.8206 23.2159 17.8212 23.12V6.87498C17.8211 6.77891 17.7958 6.68454 17.7477 6.60137C17.6996 6.51819 17.6305 6.44914 17.5473 6.40113C17.4641 6.35312 17.3697 6.32786 17.2736 6.32788C17.1775 6.3279 17.0832 6.35319 17 6.40123L12.4125 9.05248C11.6049 9.51901 10.6888 9.76475 9.75621 9.76498H5.54871ZM23.0087 7.82748C24.0037 8.73778 24.7988 9.84485 25.3436 11.0785C25.8884 12.3122 26.171 13.6456 26.1734 14.9942C26.1759 16.3428 25.8982 17.6772 25.358 18.9129C24.8177 20.1486 24.0267 21.2585 23.035 22.1725C22.4425 22.7187 23.3287 23.6012 23.9187 23.0562C25.0256 22.0256 25.9078 20.7777 26.5103 19.3905C27.1127 18.0032 27.4224 16.5066 27.4199 14.9943C27.4174 13.4819 27.1029 11.9863 26.4959 10.601C25.889 9.21581 25.0027 7.97073 23.8925 6.94373C23.3 6.40123 22.4125 7.28373 23.0087 7.82748Z" fill="#F5F4F2"/>
<path d="M21.1375 11.2888C21.6543 11.7586 22.0675 12.331 22.3507 12.9694C22.6338 13.6079 22.7808 14.2983 22.7822 14.9967C22.7836 15.6951 22.6395 16.3862 22.3589 17.0257C22.0783 17.6653 21.6674 18.2394 21.1525 18.7113C20.56 19.2588 21.445 20.14 22.0363 19.595C22.666 19.0062 23.1677 18.2941 23.5103 17.5031C23.8529 16.712 24.0289 15.8588 24.0275 14.9968C24.0261 14.1347 23.8473 13.2821 23.5021 12.4922C23.157 11.7022 22.6529 10.9918 22.0213 10.405C21.4288 9.86253 20.5425 10.745 21.1375 11.2888Z" fill="#F5F4F2"/>
</svg>
