<svg width="30" height="30" viewBox="0 0 30 30" fill="none" xmlns="http://www.w3.org/2000/svg">
<path d="M17.2713 24.92C16.9546 24.9195 16.644 24.8331 16.3725 24.67L11.7875 22.03C11.17 21.6732 10.4695 21.4852 9.7563 21.485H5.55005C4.76289 21.4843 4.00816 21.1713 3.45156 20.6147C2.89495 20.0581 2.58196 19.3034 2.5813 18.5162V11.4837C2.58262 10.6967 2.89578 9.94219 3.45221 9.38553C4.00864 8.82887 4.76298 8.51539 5.55005 8.51374H9.7563C10.4692 8.51369 11.1696 8.32663 11.7875 7.97124L16.375 5.32374C16.6478 5.16682 16.957 5.08427 17.2717 5.08435C17.5865 5.08443 17.8956 5.16712 18.1683 5.32417C18.441 5.48122 18.6678 5.70712 18.8258 5.97927C18.9838 6.25142 19.0676 6.56029 19.0688 6.87499V23.125C19.0712 23.4408 18.9892 23.7515 18.8315 24.025C18.6737 24.2986 18.4458 24.5251 18.1713 24.6812C17.8974 24.8384 17.587 24.9207 17.2713 24.92ZM5.55005 9.76374C5.09419 9.7644 4.65722 9.94587 4.335 10.2683C4.01278 10.5908 3.83163 11.0279 3.8313 11.4837V18.5162C3.83196 18.9719 4.01325 19.4087 4.33544 19.7308C4.65762 20.053 5.09441 20.2343 5.55005 20.235H9.7563C10.689 20.2356 11.6051 20.4818 12.4125 20.9487L17 23.595C17.0835 23.643 17.1781 23.6683 17.2744 23.6683C17.3707 23.6683 17.4653 23.643 17.5488 23.595C17.6324 23.5476 17.7018 23.4787 17.7498 23.3953C17.7977 23.312 17.8224 23.2174 17.8213 23.1212V6.87499C17.8212 6.77891 17.7959 6.68455 17.7478 6.60138C17.6997 6.5182 17.6306 6.44914 17.5474 6.40114C17.4642 6.35313 17.3698 6.32787 17.2737 6.32789C17.1776 6.3279 17.0833 6.3532 17 6.40124L12.4125 9.05249C11.6049 9.51859 10.6888 9.76389 9.7563 9.76374H5.55005ZM22.0076 18.0562C21.8874 18.1596 21.7324 18.2135 21.5741 18.207C21.4157 18.2004 21.2657 18.134 21.1545 18.021C21.0433 17.908 20.9791 17.757 20.9751 17.5986C20.971 17.4401 21.0273 17.286 21.1325 17.1675C21.3451 16.9562 21.5576 16.7312 21.7826 16.5175L23.295 15.0062C22.5826 14.28 21.8575 13.555 21.1325 12.8312C21.0293 12.7124 20.9746 12.559 20.9795 12.4016C20.9845 12.2442 21.0486 12.0945 21.1592 11.9824C21.2697 11.8703 21.4185 11.804 21.5758 11.7968C21.7331 11.7897 21.8873 11.8421 22.0076 11.9437L24.1826 14.1175L26.3576 11.9437C26.4778 11.8421 26.632 11.7897 26.7893 11.7968C26.9466 11.804 27.0954 11.8703 27.2059 11.9824C27.3165 12.0945 27.3806 12.2442 27.3856 12.4016C27.3905 12.559 27.3358 12.7124 27.2325 12.8312L25.07 15.0062L27.2325 17.1675C27.3378 17.286 27.3941 17.4401 27.39 17.5986C27.386 17.757 27.3218 17.908 27.2106 18.021C27.0994 18.134 26.9494 18.2004 26.791 18.207C26.6327 18.2135 26.4777 18.1596 26.3576 18.0562L24.1788 15.875L22.0076 18.0562Z" fill="#F5F4F2"/>
</svg>
